# Blender v3.1.2 OBJ File: 'slider_vertical.blend'
# www.blender.org
o base
v -0.500000 0.000000 1.250000
v -0.500000 0.125000 1.250000
v -0.500000 0.000000 -1.250000
v -0.500000 0.125000 -1.250000
v 0.500000 0.000000 1.250000
v 0.500000 0.125000 1.250000
v 0.500000 0.000000 -1.250000
v 0.500000 0.125000 -1.250000
v 0.000962 0.000000 -1.250000
v 0.000962 0.125000 -1.250000
v 0.000962 0.000000 1.250000
v 0.000962 0.125000 1.250000
v -0.249519 0.000000 -1.250000
v -0.249519 0.125000 1.250000
v -0.249519 0.125000 -1.250000
v -0.249519 0.000000 1.250000
v 0.063394 0.000000 1.250000
v 0.063394 0.125000 -1.250000
v 0.063394 0.125000 1.250000
v 0.063394 0.000000 -1.250000
v -0.500000 0.000000 0.937500
v 0.500000 0.125000 0.937500
v -0.249519 0.125000 0.937500
v -0.500000 0.125000 0.937500
v 0.500000 0.000000 0.937500
v -0.500000 0.125000 -0.937500
v 0.500000 0.000000 -0.937500
v -0.500000 0.000000 -0.937500
v 0.500000 0.125000 -0.937500
v 0.000962 0.125000 -0.937500
v 0.000962 0.125000 0.937500
v -0.249519 0.125000 -0.937500
v 0.063394 0.125000 0.937500
v 0.063394 0.125000 -0.937500
v 0.063394 0.062500 -0.062500
v 0.063394 0.125000 -0.812500
v 0.063394 0.125000 -0.750000
v 0.063394 0.125000 -0.687500
v 0.063394 0.125000 -0.625000
v 0.063394 0.062500 -0.375000
v 0.063394 0.062500 -0.875000
v 0.063394 0.062500 -0.812500
v 0.063394 0.125000 -0.375000
v 0.063394 0.125000 -0.312500
v 0.063394 0.125000 -0.250000
v 0.063394 0.125000 -0.187500
v 0.063394 0.125000 -0.125000
v 0.063394 0.125000 -0.062500
v 0.063394 0.062500 0.062500
v 0.063394 0.062500 -0.000000
v 0.063394 0.125000 0.125000
v 0.063394 0.125000 0.187500
v 0.000962 0.062500 -0.375000
v 0.000962 0.062500 0.250000
v 0.063394 0.125000 0.375000
v 0.000962 0.062500 0.312500
v 0.000962 0.062500 0.375000
v 0.063394 0.125000 0.562500
v 0.063394 0.125000 0.625000
v 0.063394 0.125000 0.687500
v 0.063394 0.125000 0.750000
v 0.063394 0.125000 0.812500
v 0.063394 0.125000 0.875000
v 0.000962 0.125000 -0.812500
v 0.000962 0.125000 -0.750000
v 0.000962 0.125000 -0.687500
v 0.000962 0.125000 -0.625000
v 0.000962 0.125000 -0.562500
v 0.000962 0.062500 0.687500
v 0.000962 0.062500 0.812500
v 0.000962 0.062500 0.750000
v 0.000962 0.125000 -0.312500
v 0.000962 0.125000 -0.250000
v 0.000962 0.062500 0.500000
v 0.000962 0.125000 -0.125000
v 0.000962 0.125000 -0.062500
v 0.000962 0.125000 0.062500
v 0.000962 0.125000 0.125000
v 0.000962 0.125000 0.187500
v 0.063394 0.062500 0.500000
v 0.000962 0.062500 0.437500
v 0.063394 0.062500 0.437500
v 0.000962 0.062500 -0.437500
v 0.063394 0.062500 -0.437500
v 0.000962 0.125000 0.562500
v 0.000962 0.125000 0.625000
v 0.000962 0.062500 -0.500000
v 0.063394 0.062500 -0.500000
v 0.000962 0.062500 0.625000
v 0.000962 0.125000 0.812500
v 0.000962 0.125000 0.750000
v 0.000962 0.125000 0.687500
v 0.000962 0.125000 0.500000
v 0.000962 0.125000 0.375000
v 0.000962 0.125000 0.312500
v 0.000962 0.125000 0.250000
v 0.000962 0.062500 0.562500
v 0.000962 0.062500 0.187500
v 0.000962 0.062500 0.125000
v 0.000962 0.062500 0.062500
v 0.000962 0.125000 -0.187500
v 0.000962 0.125000 -0.375000
v 0.000962 0.125000 -0.500000
v 0.000962 0.062500 -0.000000
v 0.000962 0.062500 -0.062500
v 0.000962 0.062500 -0.125000
v 0.000962 0.062500 -0.250000
v 0.000962 0.062500 -0.312500
v 0.000962 0.062500 -0.562500
v 0.000962 0.062500 -0.625000
v 0.000962 0.062500 -0.687500
v 0.063394 0.125000 0.500000
v 0.063394 0.125000 0.437500
v 0.000962 0.062500 -0.750000
v 0.063394 0.125000 0.312500
v 0.063394 0.125000 0.250000
v 0.063394 0.125000 0.062500
v 0.063394 0.125000 -0.000000
v 0.000962 0.062500 -0.812500
v 0.000962 0.062500 -0.875000
v 0.063394 0.062500 -0.937500
v 0.063394 0.062500 0.812500
v 0.063394 0.125000 -0.437500
v 0.063394 0.125000 -0.500000
v 0.063394 0.125000 -0.562500
v 0.000962 0.062500 0.875000
v 0.063394 0.062500 0.937500
v 0.063394 0.125000 -0.875000
v 0.063394 0.062500 0.875000
v 0.000962 0.062500 -0.937500
v 0.000962 0.062500 0.937500
v -0.249519 0.062500 0.937500
v -0.249519 0.062500 -0.937500
v 0.063394 0.062500 0.375000
v 0.000962 0.062500 -0.187500
vt 0.921875 0.984375
vt 0.984375 0.953125
vt 0.921875 0.953125
vt 0.859375 0.906250
vt 0.875000 0.875000
vt 0.859375 0.875000
vt 0.546875 0.984375
vt 0.484375 0.953125
vt 0.546875 0.953125
vt 0.796875 0.906250
vt 0.734375 0.875000
vt 0.796875 0.875000
vt 0.015625 0.437500
vt 0.078125 0.359375
vt 0.078125 0.437500
vt 0.140625 0.437500
vt 0.156250 0.359375
vt 0.156250 0.437500
vt 0.875000 0.906250
vt 0.859375 0.875000
vt 0.875000 0.875000
vt 0.796875 0.906250
vt 0.796875 0.875000
vt 0.734375 0.906250
vt 0.734375 0.875000
vt 0.140625 0.359375
vt 0.859375 0.906250
vt 0.984375 0.875000
vt 0.875000 0.906250
vt 0.984375 0.906250
vt 0.265625 0.359375
vt 0.265625 0.437500
vt 0.984375 0.906250
vt 0.984375 0.875000
vt 0.484375 0.984375
vt 0.546875 0.953125
vt 0.484375 0.953125
vt 0.921875 0.953125
vt 0.921875 0.984375
vt 0.015625 0.906250
vt 0.156250 0.640625
vt 0.156250 0.656250
vt 0.546875 0.984375
vt 0.156250 0.984375
vt 0.265625 0.906250
vt 0.265625 0.984375
vt 0.078125 0.984375
vt 0.140625 0.906250
vt 0.140625 0.984375
vt 0.156250 0.906250
vt 0.015625 0.984375
vt 0.078125 0.906250
vt 0.984375 0.984375
vt 0.984375 0.953125
vt 0.718750 0.937500
vt 0.703125 0.921875
vt 0.703125 0.937500
vt 0.515625 0.937500
vt 0.578125 0.921875
vt 0.578125 0.937500
vt 0.671875 0.937500
vt 0.656250 0.921875
vt 0.656250 0.937500
vt 0.921875 0.937500
vt 0.906250 0.921875
vt 0.906250 0.937500
vt 0.625000 0.937500
vt 0.625000 0.921875
vt 0.625000 0.937500
vt 0.640625 0.921875
vt 0.640625 0.937500
vt 0.687500 0.937500
vt 0.687500 0.921875
vt 0.687500 0.937500
vt 0.937500 0.937500
vt 0.921875 0.921875
vt 0.765625 0.937500
vt 0.750000 0.921875
vt 0.750000 0.937500
vt 0.625000 0.921875
vt 0.968750 0.937500
vt 0.953125 0.921875
vt 0.953125 0.937500
vt 0.750000 0.921875
vt 0.750000 0.937500
vt 0.937500 0.937500
vt 0.937500 0.921875
vt 0.781250 0.937500
vt 0.765625 0.921875
vt 0.984375 0.937500
vt 0.968750 0.921875
vt 0.828125 0.937500
vt 0.812500 0.921875
vt 0.812500 0.937500
vt 0.953125 0.937500
vt 0.937500 0.921875
vt 0.718750 0.937500
vt 0.718750 0.921875
vt 0.578125 0.937500
vt 0.515625 0.921875
vt 0.515625 0.937500
vt 0.843750 0.937500
vt 0.828125 0.921875
vt 0.796875 0.937500
vt 0.781250 0.921875
vt 0.781250 0.937500
vt 0.781250 0.921875
vt 0.953125 0.921875
vt 0.875000 0.937500
vt 0.859375 0.921875
vt 0.859375 0.937500
vt 0.812500 0.921875
vt 0.812500 0.937500
vt 0.609375 0.937500
vt 0.984375 0.921875
vt 0.984375 0.937500
vt 0.890625 0.921875
vt 0.890625 0.937500
vt 0.687500 0.921875
vt 0.687500 0.937500
vt 0.156250 0.812500
vt 0.140625 0.828125
vt 0.140625 0.812500
vt 0.156250 0.796875
vt 0.140625 0.796875
vt 0.843750 0.921875
vt 0.593750 0.937500
vt 0.578125 0.921875
vt 0.156250 0.703125
vt 0.140625 0.718750
vt 0.140625 0.703125
vt 0.156250 0.687500
vt 0.140625 0.687500
vt 0.875000 0.937500
vt 0.875000 0.921875
vt 0.734375 0.921875
vt 0.734375 0.937500
vt 0.156250 0.593750
vt 0.140625 0.609375
vt 0.140625 0.593750
vt 0.156250 0.578125
vt 0.140625 0.578125
vt 0.718750 0.921875
vt 0.625000 0.937500
vt 0.609375 0.921875
vt 0.609375 0.937500
vt 0.156250 0.484375
vt 0.140625 0.500000
vt 0.140625 0.484375
vt 0.156250 0.468750
vt 0.140625 0.468750
vt 0.812500 0.937500
vt 0.796875 0.921875
vt 0.890625 0.937500
vt 0.875000 0.921875
vt 0.875000 0.937500
vt 0.593750 0.921875
vt 0.593750 0.937500
vt 0.890625 0.921875
vt 0.812500 0.921875
vt 0.625000 0.921875
vt 0.156250 0.500000
vt 0.140625 0.515625
vt 0.156250 0.515625
vt 0.140625 0.531250
vt 0.156250 0.531250
vt 0.140625 0.546875
vt 0.687500 0.921875
vt 0.671875 0.921875
vt 0.156250 0.437500
vt 0.140625 0.453125
vt 0.140625 0.437500
vt 0.156250 0.890625
vt 0.140625 0.906250
vt 0.140625 0.890625
vt 0.156250 0.609375
vt 0.140625 0.625000
vt 0.156250 0.625000
vt 0.140625 0.640625
vt 0.140625 0.656250
vt 0.156250 0.453125
vt 0.140625 0.468750
vt 0.156250 0.546875
vt 0.140625 0.562500
vt 0.140625 0.546875
vt 0.156250 0.562500
vt 0.140625 0.578125
vt 0.156250 0.656250
vt 0.140625 0.671875
vt 0.140625 0.656250
vt 0.156250 0.718750
vt 0.140625 0.734375
vt 0.156250 0.734375
vt 0.140625 0.750000
vt 0.156250 0.750000
vt 0.140625 0.765625
vt 0.156250 0.671875
vt 0.140625 0.687500
vt 0.156250 0.765625
vt 0.140625 0.781250
vt 0.140625 0.765625
vt 0.156250 0.781250
vt 0.140625 0.796875
vt 0.156250 0.875000
vt 0.140625 0.875000
vt 0.156250 0.828125
vt 0.140625 0.843750
vt 0.156250 0.843750
vt 0.140625 0.859375
vt 0.156250 0.859375
vt 0.140625 0.875000
vt 0.078125 0.906250
vt 0.875000 0.921875
vt 0.984375 0.984375
vt 0.484375 0.984375
vt 0.734375 0.906250
vt 0.015625 0.359375
vt 0.156250 0.890625
vt 0.156250 0.875000
vt 0.156250 0.453125
vt 0.156250 0.671875
vt 0.156250 0.546875
vt 0.156250 0.781250
vt 0.156250 0.765625
vt 0.156250 0.562500
vt 0.515625 0.921875
vt 0.984375 0.921875
vt 0.609375 0.921875
vt 0.593750 0.921875
vt 0.156250 0.906250
vt 0.156250 0.468750
vt 0.156250 0.578125
vt 0.156250 0.687500
vt 0.156250 0.796875
vt 0.078125 0.437500
vt 0.140625 0.484375
vt 0.140625 0.500000
vt 0.140625 0.859375
vt 0.140625 0.843750
vt 0.140625 0.828125
vt 0.140625 0.515625
vt 0.140625 0.531250
vt 0.140625 0.812500
vt 0.140625 0.750000
vt 0.140625 0.734375
vt 0.140625 0.593750
vt 0.140625 0.609375
vt 0.140625 0.625000
vt 0.140625 0.718750
vt 0.140625 0.703125
vt 0.140625 0.640625
vn -1.0000 0.0000 0.0000
vn 0.0000 0.0000 -1.0000
vn 1.0000 0.0000 0.0000
vn 0.0000 0.0000 1.0000
vn 0.0000 1.0000 0.0000
s off
f 26/1/1 3/2/1 28/3/1
f 10/4/2 20/5/2 9/6/2
f 22/7/3 5/8/3 25/9/3
f 14/10/4 1/11/4 16/12/4
f 24/13/5 14/14/5 23/15/5
f 31/16/5 19/17/5 33/18/5
f 19/19/4 11/20/4 17/21/4
f 15/22/2 9/6/2 13/23/2
f 4/24/2 13/23/2 3/25/2
f 23/15/5 12/26/5 31/16/5
f 12/27/4 16/12/4 11/20/4
f 7/28/2 18/29/2 8/30/2
f 33/18/5 6/31/5 22/32/5
f 6/33/4 17/21/4 5/34/4
f 2/35/1 21/36/1 1/37/1
f 22/7/3 27/38/3 29/39/3
f 23/15/5 26/40/5 24/13/5
f 51/41/5 22/32/5 117/42/5
f 26/1/1 21/36/1 24/43/1
f 18/44/5 29/45/5 8/46/5
f 15/47/5 30/48/5 10/49/5
f 10/49/5 34/50/5 18/44/5
f 4/51/5 32/52/5 15/47/5
f 8/53/3 27/38/3 7/54/3
f 55/55/1 82/56/1 113/57/1
f 32/58/4 130/59/4 30/60/4
f 86/61/1 69/62/1 92/63/1
f 67/64/1 109/65/1 68/66/1
f 90/67/4 122/68/4 62/69/4
f 92/63/1 71/70/1 91/71/1
f 93/72/1 97/73/1 85/74/1
f 66/75/1 110/76/1 67/64/1
f 78/77/1 98/78/1 79/79/1
f 91/71/1 70/80/1 90/67/1
f 128/81/1 42/82/1 36/83/1
f 79/79/1 54/84/1 96/85/1
f 65/86/1 111/87/1 66/75/1
f 77/88/1 99/89/1 78/77/1
f 34/90/1 41/91/1 128/81/1
f 101/92/1 106/93/1 75/94/1
f 64/95/1 114/96/1 65/86/1
f 94/97/4 134/98/4 55/55/4
f 31/99/2 132/100/2 23/101/2
f 73/102/1 135/103/1 101/92/1
f 118/104/1 49/105/1 117/106/1
f 117/106/2 100/107/2 77/88/2
f 36/83/2 119/108/2 64/95/2
f 102/109/1 108/110/1 72/111/1
f 75/94/1 105/112/1 76/113/1
f 23/114/3 133/115/3 32/116/3
f 68/66/1 87/117/1 103/118/1
f 113/57/1 80/119/1 112/120/1
f 125/121/5 67/122/5 68/123/5
f 124/124/5 68/123/5 103/125/5
f 72/111/1 107/126/1 73/102/1
f 33/127/2 131/128/2 31/99/2
f 47/129/5 101/130/5 75/131/5
f 48/132/5 75/131/5 76/133/5
f 43/134/2 53/135/2 102/109/2
f 96/85/1 56/136/1 95/137/1
f 115/138/5 96/139/5 95/140/5
f 55/141/5 95/140/5 94/142/5
f 95/137/1 57/143/1 94/97/1
f 63/144/1 127/145/1 33/146/1
f 61/147/5 92/148/5 91/149/5
f 62/150/5 91/149/5 90/151/5
f 48/152/1 50/153/1 118/104/1
f 124/154/1 84/155/1 123/156/1
f 30/60/4 121/157/4 34/158/4
f 103/118/4 88/159/4 124/154/4
f 76/113/4 35/160/4 48/152/4
f 62/69/1 129/161/1 63/144/1
f 60/162/5 86/163/5 92/148/5
f 59/164/5 85/165/5 86/163/5
f 58/166/5 93/167/5 85/165/5
f 112/120/2 74/168/2 93/72/2
f 85/74/1 89/169/1 86/61/1
f 127/170/5 126/171/5 131/172/5
f 41/173/5 130/174/5 120/175/5
f 116/176/5 79/177/5 96/139/5
f 52/178/5 78/179/5 79/177/5
f 51/41/5 77/180/5 78/179/5
f 129/181/5 70/182/5 126/171/5
f 80/183/5 81/184/5 74/185/5
f 82/186/5 57/187/5 81/184/5
f 49/188/5 104/189/5 100/190/5
f 46/191/5 73/192/5 101/130/5
f 45/193/5 72/194/5 73/192/5
f 44/195/5 102/196/5 72/194/5
f 50/197/5 105/198/5 104/189/5
f 40/199/5 83/200/5 53/201/5
f 84/202/5 87/203/5 83/200/5
f 42/204/5 120/175/5 119/205/5
f 39/206/5 66/207/5 67/122/5
f 38/208/5 65/209/5 66/207/5
f 37/210/5 64/211/5 65/209/5
f 105/198/5 133/212/5 104/189/5
f 123/156/1 40/213/1 43/134/1
f 26/1/1 4/214/1 3/2/1
f 10/4/2 18/29/2 20/5/2
f 22/7/3 6/215/3 5/8/3
f 14/10/4 2/216/4 1/11/4
f 24/13/5 2/217/5 14/14/5
f 31/16/5 12/26/5 19/17/5
f 19/19/4 12/27/4 11/20/4
f 15/22/2 10/4/2 9/6/2
f 4/24/2 15/22/2 13/23/2
f 23/15/5 14/14/5 12/26/5
f 12/27/4 14/10/4 16/12/4
f 7/28/2 20/5/2 18/29/2
f 33/18/5 19/17/5 6/31/5
f 6/33/4 19/19/4 17/21/4
f 2/35/1 24/43/1 21/36/1
f 22/7/3 25/9/3 27/38/3
f 23/15/5 32/52/5 26/40/5
f 29/45/5 34/50/5 128/218/5
f 36/219/5 37/210/5 29/45/5
f 37/210/5 38/208/5 29/45/5
f 29/45/5 128/218/5 36/219/5
f 33/18/5 22/32/5 63/220/5
f 22/32/5 29/45/5 118/221/5
f 63/220/5 22/32/5 62/150/5
f 61/147/5 62/150/5 22/32/5
f 61/147/5 22/32/5 60/162/5
f 39/206/5 125/121/5 29/45/5
f 125/121/5 124/124/5 29/45/5
f 29/45/5 38/208/5 39/206/5
f 60/162/5 22/32/5 59/164/5
f 58/166/5 59/164/5 22/32/5
f 58/166/5 22/32/5 112/222/5
f 123/223/5 43/224/5 29/45/5
f 43/224/5 44/195/5 29/45/5
f 29/45/5 124/124/5 123/223/5
f 112/222/5 22/32/5 113/225/5
f 55/141/5 113/225/5 22/32/5
f 55/141/5 22/32/5 115/138/5
f 45/193/5 46/191/5 29/45/5
f 46/191/5 47/129/5 29/45/5
f 29/45/5 44/195/5 45/193/5
f 115/138/5 22/32/5 116/176/5
f 52/178/5 116/176/5 22/32/5
f 52/178/5 22/32/5 51/41/5
f 48/132/5 118/221/5 29/45/5
f 118/221/5 117/42/5 22/32/5
f 29/45/5 47/129/5 48/132/5
f 26/1/1 28/3/1 21/36/1
f 18/44/5 34/50/5 29/45/5
f 15/47/5 32/52/5 30/48/5
f 10/49/5 30/48/5 34/50/5
f 4/51/5 26/40/5 32/52/5
f 8/53/3 29/39/3 27/38/3
f 55/55/1 134/98/1 82/56/1
f 32/58/4 133/226/4 130/59/4
f 86/61/1 89/169/1 69/62/1
f 67/64/1 110/76/1 109/65/1
f 90/67/4 70/80/4 122/68/4
f 92/63/1 69/62/1 71/70/1
f 93/72/1 74/168/1 97/73/1
f 66/75/1 111/87/1 110/76/1
f 78/77/1 99/89/1 98/78/1
f 91/71/1 71/70/1 70/80/1
f 128/81/1 41/91/1 42/82/1
f 79/79/1 98/78/1 54/84/1
f 65/86/1 114/96/1 111/87/1
f 77/88/1 100/107/1 99/89/1
f 34/90/1 121/227/1 41/91/1
f 101/92/1 135/103/1 106/93/1
f 64/95/1 119/108/1 114/96/1
f 94/97/4 57/143/4 134/98/4
f 31/99/2 131/128/2 132/100/2
f 73/102/1 107/126/1 135/103/1
f 118/104/1 50/153/1 49/105/1
f 117/106/2 49/105/2 100/107/2
f 36/83/2 42/82/2 119/108/2
f 102/109/1 53/135/1 108/110/1
f 75/94/1 106/93/1 105/112/1
f 23/114/3 132/228/3 133/115/3
f 68/66/1 109/65/1 87/117/1
f 113/57/1 82/56/1 80/119/1
f 125/121/5 39/206/5 67/122/5
f 124/124/5 125/121/5 68/123/5
f 72/111/1 108/110/1 107/126/1
f 33/127/2 127/229/2 131/128/2
f 47/129/5 46/191/5 101/130/5
f 48/132/5 47/129/5 75/131/5
f 43/134/2 40/213/2 53/135/2
f 96/85/1 54/84/1 56/136/1
f 115/138/5 116/176/5 96/139/5
f 55/141/5 115/138/5 95/140/5
f 95/137/1 56/136/1 57/143/1
f 63/144/1 129/161/1 127/145/1
f 61/147/5 60/162/5 92/148/5
f 62/150/5 61/147/5 91/149/5
f 48/152/1 35/160/1 50/153/1
f 124/154/1 88/159/1 84/155/1
f 30/60/4 130/59/4 121/157/4
f 103/118/4 87/117/4 88/159/4
f 76/113/4 105/112/4 35/160/4
f 62/69/1 122/68/1 129/161/1
f 60/162/5 59/164/5 86/163/5
f 59/164/5 58/166/5 85/165/5
f 58/166/5 112/222/5 93/167/5
f 112/120/2 80/119/2 74/168/2
f 85/74/1 97/73/1 89/169/1
f 127/170/5 129/181/5 126/171/5
f 41/173/5 121/230/5 130/174/5
f 116/176/5 52/178/5 79/177/5
f 52/178/5 51/41/5 78/179/5
f 51/41/5 117/42/5 77/180/5
f 129/181/5 122/231/5 70/182/5
f 80/183/5 82/186/5 81/184/5
f 82/186/5 134/232/5 57/187/5
f 49/188/5 50/197/5 104/189/5
f 46/191/5 45/193/5 73/192/5
f 45/193/5 44/195/5 72/194/5
f 44/195/5 43/224/5 102/196/5
f 50/197/5 35/233/5 105/198/5
f 40/199/5 84/202/5 83/200/5
f 84/202/5 88/234/5 87/203/5
f 42/204/5 41/173/5 120/175/5
f 39/206/5 38/208/5 66/207/5
f 38/208/5 37/210/5 65/209/5
f 37/210/5 36/219/5 64/211/5
f 130/174/5 133/212/5 120/175/5
f 133/212/5 132/235/5 104/189/5
f 120/175/5 133/212/5 119/205/5
f 132/235/5 131/172/5 126/171/5
f 70/182/5 71/236/5 132/235/5
f 71/236/5 69/237/5 132/235/5
f 132/235/5 126/171/5 70/182/5
f 119/205/5 133/212/5 114/238/5
f 111/239/5 114/238/5 133/212/5
f 111/239/5 133/212/5 110/240/5
f 89/241/5 97/242/5 132/235/5
f 97/242/5 74/185/5 132/235/5
f 132/235/5 69/237/5 89/241/5
f 110/240/5 133/212/5 109/243/5
f 87/203/5 109/243/5 133/212/5
f 87/203/5 133/212/5 83/200/5
f 74/185/5 81/184/5 132/235/5
f 81/184/5 57/187/5 132/235/5
f 83/200/5 133/212/5 53/201/5
f 108/244/5 53/201/5 133/212/5
f 108/244/5 133/212/5 107/245/5
f 56/246/5 54/247/5 132/235/5
f 54/247/5 98/248/5 132/235/5
f 132/235/5 57/187/5 56/246/5
f 107/245/5 133/212/5 135/249/5
f 106/250/5 135/249/5 133/212/5
f 106/250/5 133/212/5 105/198/5
f 99/251/5 100/190/5 132/235/5
f 100/190/5 104/189/5 132/235/5
f 132/235/5 98/248/5 99/251/5
f 123/156/1 84/155/1 40/213/1
o slider
v -0.312500 0.062500 0.971006
v -0.312500 0.250000 0.971006
v -0.312500 0.062500 0.783506
v -0.312500 0.250000 0.783506
v 0.125000 0.062500 0.971006
v 0.125000 0.250000 0.971006
v 0.125000 0.062500 0.783506
v 0.125000 0.250000 0.783506
v -0.312500 0.062500 0.877256
v -0.312500 0.188553 0.877256
v 0.125000 0.062500 0.877256
v 0.125000 0.188553 0.877256
vt 0.765625 0.828125
vt 0.750000 0.781250
vt 0.765625 0.781250
vt 0.750000 0.781250
vt 0.812500 0.656250
vt 0.812500 0.781250
vt 0.812500 0.796875
vt 0.859375 0.781250
vt 0.859375 0.796875
vt 0.859375 0.781250
vt 0.906250 0.656250
vt 0.906250 0.781250
vt 0.953125 0.781250
vt 0.953125 0.656250
vt 0.828125 0.781250
vt 0.812500 0.656250
vt 0.828125 0.656250
vt 0.859375 0.781250
vt 0.859375 0.656250
vt 0.968750 0.781250
vt 0.968750 0.656250
vt 0.859375 0.843750
vt 0.812500 0.781250
vt 0.750000 0.843750
vt 0.750000 0.656250
vt 0.812500 0.781250
vt 0.859375 0.656250
vt 0.812500 0.781250
vt 0.812500 0.843750
vt 0.812500 0.843750
vn -1.0000 0.0000 0.0000
vn 0.0000 0.0000 -1.0000
vn 1.0000 0.0000 0.0000
vn 0.0000 0.0000 1.0000
vn 0.0000 -1.0000 0.0000
vn 0.0000 0.8364 -0.5482
vn 0.0000 0.8364 0.5482
s off
f 145/252/6 138/253/6 144/254/6
f 139/255/7 142/256/7 138/257/7
f 147/258/8 140/259/8 146/260/8
f 141/261/9 136/262/9 140/263/9
f 146/264/10 136/262/10 144/265/10
f 145/266/11 141/267/11 147/268/11
f 139/269/12 147/268/12 143/270/12
f 142/271/10 144/265/10 138/272/10
f 142/273/8 147/258/8 146/260/8
f 136/274/6 145/252/6 144/254/6
f 145/252/6 139/275/6 138/253/6
f 139/255/7 143/276/7 142/256/7
f 147/258/8 141/277/8 140/259/8
f 141/261/9 137/278/9 136/262/9
f 146/264/10 140/263/10 136/262/10
f 145/266/11 137/279/11 141/267/11
f 139/269/12 145/266/12 147/268/12
f 142/271/10 146/264/10 144/265/10
f 142/273/8 143/280/8 147/258/8
f 136/274/6 137/281/6 145/252/6
o light4
v 0.312500 0.125000 -0.812500
v 0.188394 0.125000 -0.812500
v 0.312500 0.125000 -0.937500
v 0.188394 0.125000 -0.937500
v 0.312500 0.139824 -0.937500
v 0.312500 0.139824 -0.812500
v 0.188394 0.139824 -0.812500
v 0.188394 0.139824 -0.937500
vt 0.265625 0.359375
vt 0.156250 0.437500
vt 0.265625 0.437500
vt 0.156250 0.437500
vt 0.265625 0.359375
vt 0.265625 0.437500
vt 0.156250 0.359375
vt 0.156250 0.359375
vn 0.0000 -1.0000 0.0000
vn 0.0000 1.0000 0.0000
vn 1.0000 0.0000 0.0000
vn 0.0000 0.0000 1.0000
vn -1.0000 0.0000 0.0000
vn 0.0000 0.0000 -1.0000
s off
f 148/282/13 151/283/13 150/284/13
f 155/285/14 153/286/14 152/287/14
f 150/284/15 153/286/15 148/282/15
f 148/282/16 154/288/16 149/289/16
f 149/289/17 155/285/17 151/283/17
f 151/283/18 152/287/18 150/284/18
f 148/282/13 149/289/13 151/283/13
f 155/285/14 154/288/14 153/286/14
f 150/284/15 152/287/15 153/286/15
f 148/282/16 153/286/16 154/288/16
f 149/289/17 154/288/17 155/285/17
f 151/283/18 155/285/18 152/287/18
o light0
v 0.312500 0.125000 0.937500
v 0.188394 0.125000 0.937500
v 0.312500 0.125000 0.812500
v 0.188394 0.125000 0.812500
v 0.312500 0.139824 0.812500
v 0.312500 0.139824 0.937500
v 0.188394 0.139824 0.937500
v 0.188394 0.139824 0.812500
vt 0.265625 0.359375
vt 0.156250 0.437500
vt 0.265625 0.437500
vt 0.156250 0.437500
vt 0.265625 0.359375
vt 0.265625 0.437500
vt 0.156250 0.359375
vt 0.156250 0.359375
vn 0.0000 -1.0000 0.0000
vn 0.0000 1.0000 0.0000
vn 0.0000 0.0000 1.0000
vn -1.0000 0.0000 0.0000
vn 0.0000 0.0000 -1.0000
vn 1.0000 0.0000 0.0000
s off
f 156/290/19 159/291/19 158/292/19
f 163/293/20 161/294/20 160/295/20
f 156/290/21 162/296/21 157/297/21
f 157/297/22 163/293/22 159/291/22
f 159/291/23 160/295/23 158/292/23
f 158/292/24 161/294/24 156/290/24
f 156/290/19 157/297/19 159/291/19
f 163/293/20 162/296/20 161/294/20
f 156/290/21 161/294/21 162/296/21
f 157/297/22 162/296/22 163/293/22
f 159/291/23 163/293/23 160/295/23
f 158/292/24 160/295/24 161/294/24
o light1
v 0.312500 0.125000 0.500000
v 0.188394 0.125000 0.500000
v 0.312500 0.125000 0.375000
v 0.188394 0.125000 0.375000
v 0.312500 0.139824 0.375000
v 0.312500 0.139824 0.500000
v 0.188394 0.139824 0.500000
v 0.188394 0.139824 0.375000
vt 0.265625 0.359375
vt 0.156250 0.437500
vt 0.265625 0.437500
vt 0.156250 0.437500
vt 0.265625 0.359375
vt 0.265625 0.437500
vt 0.156250 0.359375
vt 0.156250 0.359375
vn 0.0000 -1.0000 0.0000
vn 0.0000 1.0000 0.0000
vn 1.0000 0.0000 0.0000
vn 0.0000 0.0000 1.0000
vn -1.0000 0.0000 0.0000
vn 0.0000 0.0000 -1.0000
s off
f 164/298/25 167/299/25 166/300/25
f 171/301/26 169/302/26 168/303/26
f 166/300/27 169/302/27 164/298/27
f 164/298/28 170/304/28 165/305/28
f 165/305/29 171/301/29 167/299/29
f 167/299/30 168/303/30 166/300/30
f 164/298/25 165/305/25 167/299/25
f 171/301/26 170/304/26 169/302/26
f 166/300/27 168/303/27 169/302/27
f 164/298/28 169/302/28 170/304/28
f 165/305/29 170/304/29 171/301/29
f 167/299/30 171/301/30 168/303/30
o light2
v 0.312500 0.125000 0.062500
v 0.188394 0.125000 0.062500
v 0.312500 0.125000 -0.062500
v 0.188394 0.125000 -0.062500
v 0.312500 0.139824 -0.062500
v 0.312500 0.139824 0.062500
v 0.188394 0.139824 0.062500
v 0.188394 0.139824 -0.062500
vt 0.265625 0.359375
vt 0.156250 0.437500
vt 0.265625 0.437500
vt 0.156250 0.437500
vt 0.265625 0.359375
vt 0.265625 0.437500
vt 0.156250 0.359375
vt 0.156250 0.359375
vn 0.0000 -1.0000 0.0000
vn 0.0000 1.0000 0.0000
vn 0.0000 0.0000 1.0000
vn -1.0000 0.0000 0.0000
vn 0.0000 0.0000 -1.0000
vn 1.0000 0.0000 0.0000
s off
f 172/306/31 175/307/31 174/308/31
f 179/309/32 177/310/32 176/311/32
f 172/306/33 178/312/33 173/313/33
f 173/313/34 179/309/34 175/307/34
f 175/307/35 176/311/35 174/308/35
f 174/308/36 177/310/36 172/306/36
f 172/306/31 173/313/31 175/307/31
f 179/309/32 178/312/32 177/310/32
f 172/306/33 177/310/33 178/312/33
f 173/313/34 178/312/34 179/309/34
f 175/307/35 179/309/35 176/311/35
f 174/308/36 176/311/36 177/310/36
o light3
v 0.312500 0.125000 -0.375000
v 0.188394 0.125000 -0.375000
v 0.312500 0.125000 -0.500000
v 0.188394 0.125000 -0.500000
v 0.312500 0.139824 -0.500000
v 0.312500 0.139824 -0.375000
v 0.188394 0.139824 -0.375000
v 0.188394 0.139824 -0.500000
vt 0.265625 0.359375
vt 0.156250 0.437500
vt 0.265625 0.437500
vt 0.156250 0.437500
vt 0.265625 0.359375
vt 0.265625 0.437500
vt 0.156250 0.359375
vt 0.156250 0.359375
vn 0.0000 -1.0000 0.0000
vn 0.0000 1.0000 0.0000
vn 1.0000 0.0000 0.0000
vn 0.0000 0.0000 1.0000
vn -1.0000 0.0000 0.0000
vn 0.0000 0.0000 -1.0000
s off
f 180/314/37 183/315/37 182/316/37
f 187/317/38 185/318/38 184/319/38
f 182/316/39 185/318/39 180/314/39
f 180/314/40 186/320/40 181/321/40
f 181/321/41 187/317/41 183/315/41
f 183/315/42 184/319/42 182/316/42
f 180/314/37 181/321/37 183/315/37
f 187/317/38 186/320/38 185/318/38
f 182/316/39 184/319/39 185/318/39
f 180/314/40 185/318/40 186/320/40
f 181/321/41 186/320/41 187/317/41
f 183/315/42 187/317/42 184/319/42
