# Blender v2.93.4 OBJ File: ''
# www.blender.org
mtllib conveyor_material.mtl
o o1
v 0.25 0 0
v 0 0 0
v 0 1 0
v 0.25 1 0
v 0.25 -0 0.25
v 0.25 1 0.25
v 0 -0 0.25
v 0 1 0.25
vt 0.25 0
vt 0.5 0
vt 0.5 1
vt 0.25 1
vt 0 0
vt 0 1
vt 0.75 0
vt 1 0
vt 1 1
vt 0.75 1
vt 0 0.75
vt 0.25 0.75
vt 0 1
vt 0 0.75
vt 0.25 0.75
vt 0.25 1
vt 0 1
vn 0 0 -1
vn 1 0 0
vn 0 -0 1
vn -1 0 0
vn 0 1 0
vn 0 -1 -0
usemtl m_concrete
s 1
f 1/1/1 2/2/1 3/3/1 4/4/1
f 5/5/2 1/1/2 4/4/2 6/6/2
f 7/7/3 5/8/3 6/9/3 8/10/3
f 2/2/4 7/7/4 8/10/4 3/3/4
f 8/11/5 6/12/5 4/4/5 3/13/5
f 2/14/6 1/15/6 5/16/6 7/17/6
o o2
v 1 0 0
v 0.75 0 0
v 0.75 1 0
v 1 1 0
v 1 -0 0.25
v 1 1 0.25
v 0.75 -0 0.25
v 0.75 1 0.25
vt 0.25 0
vt 0.5 0
vt 0.5 1
vt 0.25 1
vt 0 0
vt 0 1
vt 0.75 0
vt 1 0
vt 1 1
vt 0.75 1
vt 0 0.75
vt 0.25 0.75
vt 0 1
vt 0 0.75
vt 0.25 0.75
vt 0.25 1
vt 0 1
vn 0 0 -1
vn 1 0 0
vn 0 -0 1
vn -1 -0 0
vn 0 1 0
vn 0 -1 -0
usemtl m_concrete
s 1
f 9/18/7 10/19/7 11/20/7 12/21/7
f 13/22/8 9/18/8 12/21/8 14/23/8
f 15/24/9 13/25/9 14/26/9 16/27/9
f 10/19/10 15/24/10 16/27/10 11/20/10
f 16/28/11 14/29/11 12/21/11 11/30/11
f 10/31/12 9/32/12 13/33/12 15/34/12
o o3
v 1 -0 0.75
v 0.75 -0 0.75
v 0.75 1 0.75
v 1 1 0.75
v 1 -0 1
v 1 1 1
v 0.75 -0 1
v 0.75 1 1
vt 0.25 0
vt 0.5 0
vt 0.5 1
vt 0.25 1
vt 0 0
vt 0 1
vt 0.75 0
vt 1 0
vt 1 1
vt 0.75 1
vt 0 0.75
vt 0.25 0.75
vt 0 1
vt 0 0.75
vt 0.25 0.75
vt 0.25 1
vt 0 1
vn 0 0 -1
vn 1 0 0
vn 0 -0 1
vn -1 0 0
vn 0 1 0
vn 0 -1 -0
usemtl m_concrete
s 1
f 17/35/13 18/36/13 19/37/13 20/38/13
f 21/39/14 17/35/14 20/38/14 22/40/14
f 23/41/15 21/42/15 22/43/15 24/44/15
f 18/36/16 23/41/16 24/44/16 19/37/16
f 24/45/17 22/46/17 20/38/17 19/47/17
f 18/48/18 17/49/18 21/50/18 23/51/18
o o4
v 0.25 -0 0.75
v 0 -0 0.75
v 0 1 0.75
v 0.25 1 0.75
v 0.25 -0 1
v 0.25 1 1
v 0 -0 1
v 0 1 1
vt 0.25 0
vt 0.5 0
vt 0.5 1
vt 0.25 1
vt 0 0
vt 0 1
vt 0.75 0
vt 1 0
vt 1 1
vt 0.75 1
vt 0 0.75
vt 0.25 0.75
vt 0 1
vt 0 0.75
vt 0.25 0.75
vt 0.25 1
vt 0 1
vn 0 0 -1
vn 1 0 0
vn 0 -0 1
vn -1 0 0
vn 0 1 0
vn 0 -1 -0
usemtl m_concrete
s 1
f 25/52/19 26/53/19 27/54/19 28/55/19
f 29/56/20 25/52/20 28/55/20 30/57/20
f 31/58/21 29/59/21 30/60/21 32/61/21
f 26/53/22 31/58/22 32/61/22 27/54/22
f 32/62/23 30/63/23 28/55/23 27/64/23
f 26/65/24 25/66/24 29/67/24 31/68/24
o cvr1
v 0.75 0 0
v 0.25 0 0
v 0.25 0.25 0
v 0.75 0.25 0
v 0.25 0.25 0.25
v 0.75 0.25 0.25
v 0.75 -0 0.25
v 0.25 -0 0.25
vt 0.25 1
vt 0.75 1
vt 0.75 0.75
vt 0.25 0.75
vt 0.25 0.75
vt 0.75 0.75
vt 0.75 1
vt 0.25 1
vt 0.25 0.75
vt 0.75 0.75
vt 0.75 1
vt 0.25 1
vt 0 0.75
vt 0.25 0.75
vt 0.25 1
vt 0 1
vt 0 0.75
vt 0.5 0.75
vt 0.5 1
vt 0 1
vt 0 0.75
vt 0.25 0.75
vt 0.25 1
vt 0 1
vn 0 0 -1
vn 0 1 0
vn 0 -1 -0
vn 1 0 0
vn 0 -0 1
vn -1 0 0
usemtl m_conveyor
s 1
f 33/69/25 34/70/25 35/71/25 36/72/25
f 37/73/26 38/74/26 36/75/26 35/76/26
f 34/77/27 33/78/27 39/79/27 40/80/27
usemtl m_conveyor
f 39/81/28 33/82/28 36/83/28 38/84/28
f 40/85/29 39/86/29 38/87/29 37/88/29
f 34/89/30 40/90/30 37/91/30 35/92/30
o cvr2
v 0.75 -0 0.75
v 0.25 -0 0.75
v 0.25 0.25 0.75
v 0.75 0.25 0.75
v 0.75 -0 1
v 0.75 0.25 1
v 0.25 -0 1
v 0.25 0.25 1
vt 0 0.75
vt 0.5 0.75
vt 0.5 1
vt 0 1
vt 0 0.75
vt 0.25 0.75
vt 0.25 1
vt 0 1
vt 0 0.75
vt 0.25 0.75
vt 0.25 1
vt 0 1
vt 0.25 0
vt 0.75 0
vt 0.75 0.25
vt 0.25 0.25
vt 0.25 0
vt 0.75 0
vt 0.75 0.25
vt 0.25 0.25
vt 0.25 0
vt 0.75 0
vt 0.75 0.25
vt 0.25 0.25
vn 0 0 -1
vn 1 0 0
vn -1 0 0
vn 0 0 1
vn 0 1 0
vn 0 -1 -0
usemtl m_conveyor
s 1
f 41/93/31 42/94/31 43/95/31 44/96/31
f 45/97/32 41/98/32 44/99/32 46/100/32
f 42/101/33 47/102/33 48/103/33 43/104/33
usemtl m_conveyor
f 47/105/34 45/106/34 46/107/34 48/108/34
f 48/109/35 46/110/35 44/111/35 43/112/35
f 42/113/36 41/114/36 45/115/36 47/116/36
o r2
v 0.8875 -0 0.25
v 0.8875 -0 0.25
v 0.8875 1 0.25
v 0.8875 1 0.25
v 0.8875 -0 0.75
v 0.8875 -0 0.75
v 0.8875 1 0.75
v 0.8875 1 0.75
vt 0 0
vt 0 0
vt 0 1
vt 0 1
vt 0 0
vt 0 0
vt 0 1
vt 0 1
vt 0.5 1
vt 0.5 1
vt 0 1
vt 0 1
vt 0.5 1
vt 0.5 1
vt 0.5 0
vt 0.5 1
vt 0.5 0
vn 0 0 -1
vn 0 0 1
vn 0 0 0
vn 1 0 0
vn -1 -0 0
usemtl m_conveyor
s 1
f 49/117/37 50/118/37 51/119/37 52/120/37
f 53/121/38 54/122/38 55/123/38 56/124/38
f 56/125/39 55/126/39 52/120/39 51/119/39
f 50/127/39 49/128/39 54/129/39 53/130/39
usemtl m_grate_top
f 54/122/40 49/131/40 52/132/40 55/123/40
f 50/118/41 53/133/41 56/125/41 51/119/41
o r4
v 0.125 -0 0.25
v 0.125 -0 0.25
v 0.125 1 0.25
v 0.125 1 0.25
v 0.125 -0 0.75
v 0.125 -0 0.75
v 0.125 1 0.75
v 0.125 1 0.75
vt 0 0
vt 0 0
vt 0 1
vt 0 1
vt 0 0
vt 0 0
vt 0 1
vt 0 1
vt 0.5 1
vt 0.5 1
vt 0.5 1
vt 0.5 1
vt 0 1
vt 0 1
vt 0.5 0
vt 0.5 0
vt 0.5 1
vn 0 0 -1
vn 0 0 1
vn 0 0 0
vn 1 0 0
vn -1 0 0
usemtl m_conveyor
s 1
f 57/134/42 58/135/42 59/136/42 60/137/42
f 61/138/43 62/139/43 63/140/43 64/141/43
f 64/141/44 63/140/44 60/142/44 59/143/44
f 58/144/44 57/145/44 62/146/44 61/147/44
usemtl m_grate_top
f 62/139/45 57/148/45 60/142/45 63/140/45
f 58/135/46 61/149/46 64/150/46 59/136/46